<?xml version="1.0" encoding="UTF-8" standalone="no"?>
<!-- Generator: Adobe Illustrator 27.5.0, SVG Export Plug-In . SVG Version: 6.00 Build 0)  -->

<svg
   version="1.1"
   x="0px"
   y="0px"
   viewBox="0 0 500 500"
   style="enable-background:new 0 0 500 500;"
   xml:space="preserve"
   id="svg72"
   sodipodi:docname="1584486_220877-P1KS5G-484.svg"
   inkscape:version="1.4 (86a8ad7, 2024-10-11)"
   xmlns:inkscape="http://www.inkscape.org/namespaces/inkscape"
   xmlns:sodipodi="http://sodipodi.sourceforge.net/DTD/sodipodi-0.dtd"
   xmlns="http://www.w3.org/2000/svg"
   xmlns:svg="http://www.w3.org/2000/svg"><defs
   id="defs72"><clipPath
     clipPathUnits="userSpaceOnUse"
     id="clipPath77"><path
       id="path78"
       style="fill:#ff0000;fill-opacity:1;fill-rule:nonzero;stroke:none"
       d="M 0,0.00585938 V 499.99609 H 500 V 0.00585938 Z M 245.64648,461.29688 c 0.12455,-0.009 0.25228,-0.008 0.38086,0.002 1.23442,0.0965 2.62448,1.06533 3.57422,3.16015 0.73739,1.62643 1.56364,3.21376 2.4043,4.78907 1.08318,1.92262 2.53474,2.19926 4.56055,2.83007 8.17395,1.79474 16.56276,2.24894 24.89453,2.72266 8.11244,0.45707 16.24049,0.49224 24.36328,0.49024 2.91771,0.0528 5.83073,-0.13179 8.74023,-0.32227 2.01739,-0.13207 3.34935,0.48014 4.09571,1.33594 3.8983,-0.20516 7.7952,-0.44664 11.66992,-0.92969 6.0864,-0.75877 7.18849,5.2953 1.10742,6.0957 -5.21717,0.68669 -10.47635,0.9466 -15.72852,1.20118 -7.01113,0.31569 -14.02988,0.40656 -21.04687,0.48046 -7.16695,0.17399 -14.33403,0.37548 -21.50195,0.50782 -6.42863,0.11102 -12.85768,0.15304 -19.28711,0.18554 -6.43117,0.0789 -12.86024,0.0144 -19.28711,-0.22851 -7.09729,-0.42644 -14.19546,-0.82712 -21.29297,-1.25 -6.06932,-0.37156 -12.1463,-0.58736 -18.22461,-0.73828 -4.78762,-0.0332 -9.56912,-0.26447 -14.35156,-0.4668 l -1.89844,-0.0762 c -6.12855,-0.24683 -5.87854,-6.43829 0.25,-6.19141 0.63711,0.0257 1.27305,0.0524 1.91016,0.0781 4.74646,0.20082 9.4925,0.43079 14.24414,0.46289 6.14989,0.15291 12.29865,0.37214 18.43945,0.74804 7.05294,0.42023 14.10758,0.81603 21.16016,1.24219 6.31415,0.24017 12.62889,0.30047 18.94726,0.22461 -3.23459,-1.12148 -5.37822,-2.23089 -7.23437,-5.49219 -0.91722,-1.73059 -1.83046,-3.46867 -2.62891,-5.25781 -1.46461,-3.28188 -0.12789,-5.47476 1.74023,-5.60351 z" /></clipPath></defs><sodipodi:namedview
   id="namedview72"
   pagecolor="#ffffff"
   bordercolor="#000000"
   borderopacity="0.25"
   inkscape:showpageshadow="2"
   inkscape:pageopacity="0.0"
   inkscape:pagecheckerboard="0"
   inkscape:deskcolor="#d1d1d1"
   inkscape:zoom="1.614"
   inkscape:cx="250"
   inkscape:cy="250"
   inkscape:window-width="1920"
   inkscape:window-height="1009"
   inkscape:window-x="1592"
   inkscape:window-y="-8"
   inkscape:window-maximized="1"
   inkscape:current-layer="svg72" />
<g
   id="BACKGROUND"
   clip-path="url(#clipPath77)"
   style="display:none">
	<path
   id="rect1"
   style="clip-rule:evenodd;fill:#fff9eb;fill-rule:evenodd"
   d="M 0,0.00585938 V 499.99609 H 500 V 0.00585938 Z M 211.46875,469.01758 c 0.97138,-0.002 1.94427,0.008 2.91602,0.004 2.30692,0.002 4.61301,0.004 6.91992,0.01 2.40559,0.007 4.81143,0.0139 7.21679,0.0508 2.17472,0.0396 4.34995,0.0901 6.51954,0.25391 1.91677,0.1523 3.8266,0.40617 5.74804,0.48047 2.45411,0.11591 4.90583,0.27532 7.34766,0.55273 2.86323,0.28198 5.73572,0.43184 8.61133,0.52344 3.5571,0.009 7.11501,0.0191 10.67187,0.0644 3.29855,0.05 6.5984,0.10908 9.89063,0.33399 3.27603,0.24385 6.53878,0.61581 9.8125,0.88476 3.38006,0.31375 6.7506,0.72171 10.12109,1.125 3.049,-0.2485 6.0964,-0.51504 9.14063,-0.81836 4.32921,-0.47313 8.63398,-1.1444 12.97461,-1.51367 3.04228,-0.30992 6.09528,-0.66618 9.15429,-0.70898 4.07779,-0.057 5.36636,2.61083 4.00195,4.44921 0.47201,-0.0184 0.94399,-0.0387 1.41602,-0.0566 1.58388,-0.0372 3.16796,-0.0519 4.75195,-0.0566 1.584,-0.005 3.16965,9.6e-4 4.75391,0.002 11.04033,0.006 11.04033,11.14334 0,11.15234 -3.07848,0.003 -6.1567,-0.0261 -9.23438,0.0508 -0.44791,0.0172 -0.89584,0.0371 -1.34374,0.0547 -0.16569,0.96151 -0.32258,1.57515 -0.48243,2.8125 -0.0272,0.21077 -4.44242,0.0566 -4.5957,0.0586 -4.78965,-0.0872 -9.57818,-0.20988 -14.36719,-0.32617 -7.47724,-0.13882 -14.95466,-0.05 -22.43164,0.0879 -6.58604,0.13967 -13.18091,0.27737 -19.74023,0.93555 -4.99369,0.53088 -9.99607,1.08872 -14.89258,2.24219 -4.41459,0.91744 -8.8224,1.87126 -13.20703,2.92382 -3.80585,0.846 -7.64563,1.45953 -11.5332,1.78711 -3.96101,0.38967 -7.93724,0.5352 -11.91602,0.34766 -4.45018,-0.14079 -8.89833,-0.36984 -13.33203,-0.78906 -6.27623,-0.60821 -12.5199,-1.44891 -18.72266,-2.59375 -6.81756,-1.17485 -13.62273,-2.49431 -20.22656,-4.59375 -4.78445,-1.55127 -9.65325,-3.09409 -14.04883,-5.57813 -9.61169,-5.43178 -3.74455,-14.10443 6.18555,-9.2793 3.62083,1.75942 7.47061,3.01173 11.29492,4.2461 0.51642,0.16328 1.04072,0.29646 1.56055,0.44726 -0.0505,-0.23361 -0.0858,-0.47238 -0.14453,-0.70312 0.48519,-0.18643 0.95532,-0.41769 1.45507,-0.56055 0.18516,-0.0529 0.93068,-0.0872 1.45508,-0.11719 0.53277,-1.5885 1.75083,-2.77599 3.32227,-3.76171 1.9041,-0.88749 3.87631,-1.62053 5.92383,-2.10547 2.43099,-0.57051 4.89933,-0.91727 7.39453,-1.04883 2.16456,-0.12502 4.33435,-0.10373 6.5,-0.21484 1.67928,-0.0898 3.35782,-0.2064 5.01757,-0.49024 1.73685,-0.22003 3.48628,-0.32338 5.22852,-0.49609 0.97056,-0.0521 1.94073,-0.0666 2.91211,-0.0684 z" />
</g>
<g
   id="OBJECTS"
   style="display:inline">
	<ellipse
   style="fill:#efd9ac"
   cx="255.25"
   cy="358.33899"
   rx="147"
   ry="17"
   id="ellipse1" />
	<path
   style="fill:#997c4f"
   d="m 346.834,348.162 c -7.492,0 -13.662,5.602 -14.584,12.844 h 29.169 c -0.922,-7.241 -7.093,-12.844 -14.585,-12.844 z"
   id="path1" />
	<g
   id="g4">
		<g
   id="g3">
			<path
   style="fill:#b57015"
   d="m 169.738,335.567 h -43.416 c -1.43,0 -2.589,1.159 -2.589,2.589 0,1.43 1.159,2.589 2.589,2.589 h 43.416 c 1.43,0 2.589,-1.159 2.589,-2.589 0,-1.429 -1.159,-2.589 -2.589,-2.589 z"
   id="path2" />
			<path
   style="fill:#b57015"
   d="m 151.555,298.658 c -0.203,-0.558 -0.734,-0.93 -1.328,-0.93 h -4.976 c -0.601,0 -1.136,0.38 -1.334,0.947 l -14.009,40.079 h 36.246 z"
   id="path3" />
		</g>
		<polygon
   style="fill:#eceff1"
   points="156.567,312.423 154.262,306.092 141.324,306.092 139.111,312.423 "
   id="polygon3" />
		<polygon
   style="fill:#eceff1"
   points="162.44,328.555 160.135,322.224 135.685,322.224 133.472,328.555 "
   id="polygon4" />
	</g>
	<rect
   x="351.84201"
   y="148.869"
   style="fill:#eceff1"
   width="13.596"
   height="212.306"
   id="rect4" />
	<rect
   x="360.85699"
   y="148.869"
   style="fill:#939ca6"
   width="4.5809999"
   height="212.306"
   id="rect5" />
	<g
   id="g5">
		<path
   style="fill:#ce9c52"
   d="m 169.03,199.339 h -8.478 c -0.547,0 -0.993,-0.44 -1,-0.987 -0.046,-3.723 -3.112,-6.751 -6.833,-6.751 -1.903,0 -3.739,0.811 -5.035,2.225 -0.268,0.292 -0.683,0.4 -1.059,0.271 -0.376,-0.127 -0.64,-0.464 -0.675,-0.859 -0.497,-5.643 -5.146,-9.898 -10.813,-9.898 -5.854,0 -10.721,4.765 -10.849,10.622 -0.01,0.461 -0.335,0.856 -0.786,0.955 -0.449,0.101 -0.911,-0.123 -1.113,-0.539 -1.574,-3.228 -4.772,-5.232 -8.349,-5.232 -5.073,0 -9.24,4.129 -9.289,9.204 -0.005,0.548 -0.452,0.99 -1,0.99 H 96.25 c -0.552,0 -1,-0.448 -1,-1 0,-0.552 0.448,-1 1,-1 h 6.554 c 0.558,-5.705 5.404,-10.194 11.236,-10.194 3.392,0 6.505,1.483 8.617,3.997 1.389,-5.605 6.499,-9.803 12.48,-9.803 6.077,0 11.165,4.131 12.509,9.873 1.477,-1.038 3.25,-1.611 5.072,-1.611 4.476,0 8.218,3.391 8.765,7.739 h 7.546 c 0.552,0 1,0.448 1,1 0.001,0.55 -0.447,0.998 -0.999,0.998 z"
   id="path5" />
	</g>
	<path
   style="fill:#997c4f"
   d="m 166.834,343.496 c -7.492,0 -13.662,5.602 -14.584,12.843 h 29.169 c -0.922,-7.241 -7.093,-12.843 -14.585,-12.843 z"
   id="path6" />
	<rect
   x="151.03999"
   y="148.869"
   style="fill:#eceff1"
   width="13.596"
   height="212.306"
   id="rect6" />
	<rect
   x="160.05499"
   y="148.869"
   style="fill:#939ca6"
   width="4.5809999"
   height="212.306"
   id="rect7" />
	<rect
   x="135.23199"
   y="158.282"
   style="fill:#eceff1"
   width="247.86501"
   height="120.272"
   id="rect8" />
	<text
   transform="translate(211.4157,213.0146)"
   id="text9"><tspan
     x="0"
     y="0"
     style="font-size:16.7335px;font-family:DejaVuSans-Bold;fill:#484f58"
     id="tspan8">PAGE UNDER </tspan><tspan
     x="-8.8520002"
     y="21.962999"
     style="font-size:16.7335px;font-family:DejaVuSans-Bold;fill:#484f58"
     id="tspan9">CONSTRUCTION</tspan></text>
	<g
   id="g11">
		<g
   id="g10">
			<path
   style="fill:#ce861d"
   d="m 219.235,370.968 h -51.687 c -1.702,0 -3.082,1.38 -3.082,3.082 0,1.702 1.38,3.082 3.082,3.082 h 51.687 c 1.702,0 3.082,-1.38 3.082,-3.082 0,-1.702 -1.38,-3.082 -3.082,-3.082 z"
   id="path9" />
			<path
   style="fill:#ce861d"
   d="m 197.587,327.027 c -0.242,-0.665 -0.874,-1.107 -1.581,-1.107 h -5.924 c -0.715,0 -1.352,0.452 -1.588,1.127 l -16.678,47.714 h 43.151 z"
   id="path10" />
		</g>
		<polygon
   style="fill:#eceff1"
   points="203.554,343.415 200.81,335.878 185.408,335.878 182.773,343.415 "
   id="polygon10" />
		<polygon
   style="fill:#eceff1"
   points="210.547,362.62 207.802,355.083 178.695,355.083 176.06,362.62 "
   id="polygon11" />
	</g>
	<g
   id="g13">
		<g
   id="g12">
			<path
   style="fill:#ce861d"
   d="m 294.339,375.552 27.974,-43.462 c 0.921,-1.431 0.508,-3.339 -0.924,-4.26 -1.432,-0.921 -3.339,-0.508 -4.26,0.924 l -27.974,43.462 c -0.921,1.431 -0.508,3.339 0.924,4.26 1.432,0.921 3.339,0.508 4.26,-0.924 z"
   id="path11" />
			<path
   style="fill:#ce861d"
   d="m 343.004,381.131 c 0.69,0.156 1.404,-0.136 1.787,-0.73 l 3.206,-4.981 c 0.387,-0.601 0.352,-1.382 -0.088,-1.946 l -31.095,-39.848 -23.354,36.285 z"
   id="path12" />
		</g>
		<polygon
   style="fill:#eceff1"
   points="325.995,377.279 333.818,379.05 342.154,366.098 337.242,359.804 "
   id="polygon12" />
		<polygon
   style="fill:#eceff1"
   points="306.061,372.764 313.884,374.536 329.638,350.06 324.726,343.765 "
   id="polygon13" />
	</g>
	<g
   id="g23">
		<rect
   x="135.23199"
   y="158.282"
   style="fill:#ce861d"
   width="247.86501"
   height="18.471001"
   id="rect13" />
		<polygon
   style="fill:#eceff1"
   points="135.232,176.753 142.277,176.753 155.523,158.282 142.653,158.282 135.232,168.631 "
   id="polygon14" />
		<polygon
   style="fill:#eceff1"
   points="169.148,158.282 155.902,176.753 168.772,176.753 182.018,158.282 "
   id="polygon15" />
		<polygon
   style="fill:#eceff1"
   points="195.643,158.282 182.396,176.753 195.266,176.753 208.513,158.282 "
   id="polygon16" />
		<polygon
   style="fill:#eceff1"
   points="222.137,158.282 208.891,176.753 221.761,176.753 235.007,158.282 "
   id="polygon17" />
		<polygon
   style="fill:#eceff1"
   points="248.632,158.282 235.386,176.753 248.256,176.753 261.502,158.282 "
   id="polygon18" />
		<polygon
   style="fill:#eceff1"
   points="275.127,158.282 261.881,176.753 274.75,176.753 287.997,158.282 "
   id="polygon19" />
		<polygon
   style="fill:#eceff1"
   points="301.622,158.282 288.375,176.753 301.245,176.753 314.491,158.282 "
   id="polygon20" />
		<polygon
   style="fill:#eceff1"
   points="328.116,158.282 314.87,176.753 327.74,176.753 340.986,158.282 "
   id="polygon21" />
		<polygon
   style="fill:#eceff1"
   points="354.611,158.282 341.365,176.753 354.234,176.753 367.481,158.282 "
   id="polygon22" />
		<polygon
   style="fill:#eceff1"
   points="383.096,158.282 381.106,158.282 367.859,176.753 380.729,176.753 383.096,173.452 "
   id="polygon23" />
	</g>
	<g
   id="g33">
		<rect
   x="135.23199"
   y="260.42599"
   style="fill:#ce861d"
   width="247.86501"
   height="18.471001"
   id="rect23" />
		<polygon
   style="fill:#eceff1"
   points="135.232,278.897 142.277,278.897 155.523,260.426 142.653,260.426 135.232,270.776 "
   id="polygon24" />
		<polygon
   style="fill:#eceff1"
   points="169.148,260.426 155.902,278.897 168.772,278.897 182.018,260.426 "
   id="polygon25" />
		<polygon
   style="fill:#eceff1"
   points="195.643,260.426 182.396,278.897 195.266,278.897 208.513,260.426 "
   id="polygon26" />
		<polygon
   style="fill:#eceff1"
   points="222.137,260.426 208.891,278.897 221.761,278.897 235.007,260.426 "
   id="polygon27" />
		<polygon
   style="fill:#eceff1"
   points="248.632,260.426 235.386,278.897 248.256,278.897 261.502,260.426 "
   id="polygon28" />
		<polygon
   style="fill:#eceff1"
   points="275.127,260.426 261.881,278.897 274.75,278.897 287.997,260.426 "
   id="polygon29" />
		<polygon
   style="fill:#eceff1"
   points="301.622,260.426 288.375,278.897 301.245,278.897 314.491,260.426 "
   id="polygon30" />
		<polygon
   style="fill:#eceff1"
   points="328.116,260.426 314.87,278.897 327.74,278.897 340.986,260.426 "
   id="polygon31" />
		<polygon
   style="fill:#eceff1"
   points="354.611,260.426 341.365,278.897 354.234,278.897 367.481,260.426 "
   id="polygon32" />
		<polygon
   style="fill:#eceff1"
   points="383.096,260.426 381.106,260.426 367.859,278.897 380.729,278.897 383.096,275.596 "
   id="polygon33" />
	</g>
	<rect
   x="378.67499"
   y="158.282"
   style="fill:#939ca6"
   width="4.862"
   height="120.615"
   id="rect33" />
	<path
   style="fill:#c4b290"
   d="m 151.25,348.339 c -9.333,0 -17.02,6.979 -18.169,16 h 36.337 c -1.148,-9.021 -8.835,-16 -18.168,-16 z"
   id="path33" />
	<path
   style="fill:#c4b290"
   d="m 360.584,354.339 c -9.333,0 -17.02,6.979 -18.169,16 h 36.337 c -1.148,-9.021 -8.835,-16 -18.168,-16 z"
   id="path34" />
	<path
   style="fill:#c4b290"
   d="m 132.168,351.496 c -7.492,0 -13.662,5.602 -14.584,12.844 h 29.169 c -0.923,-7.242 -7.094,-12.844 -14.585,-12.844 z"
   id="path35" />
	<g
   id="g36">
		<path
   style="fill:#ce9c52"
   d="m 345.03,143.339 h -27.502 c -0.548,0 -0.995,-0.442 -1,-0.99 -0.048,-5.075 -4.215,-9.204 -9.289,-9.204 -3.576,0 -6.775,2.005 -8.349,5.232 -0.203,0.415 -0.664,0.638 -1.113,0.539 -0.451,-0.099 -0.775,-0.493 -0.786,-0.955 -0.128,-5.857 -4.995,-10.622 -10.849,-10.622 -5.667,0 -10.316,4.255 -10.813,9.898 -0.035,0.395 -0.299,0.732 -0.675,0.859 -0.376,0.129 -0.791,0.021 -1.059,-0.271 -1.296,-1.414 -3.132,-2.225 -5.035,-2.225 -3.721,0 -6.786,3.029 -6.833,6.751 -0.007,0.547 -0.453,0.987 -1,0.987 h -8.478 c -0.552,0 -1,-0.448 -1,-1 0,-0.552 0.448,-1 1,-1 h 7.546 c 0.546,-4.348 4.289,-7.739 8.765,-7.739 1.822,0 3.595,0.573 5.072,1.611 1.345,-5.742 6.432,-9.873 12.509,-9.873 5.98,0 11.09,4.198 12.48,9.803 2.112,-2.515 5.225,-3.998 8.617,-3.998 5.832,0 10.678,4.489 11.236,10.194 h 26.555 c 0.552,0 1,0.448 1,1 10e-4,0.555 -0.447,1.003 -0.999,1.003 z"
   id="path36" />
	</g>
	<g
   id="g37">
		<path
   style="fill:#ce9c52"
   d="m 235.679,113.292 h -21.338 c -0.548,0 -0.995,-0.442 -1,-0.991 -0.073,-7.699 -6.394,-13.962 -14.09,-13.962 -5.425,0 -10.278,3.042 -12.664,7.937 -0.203,0.416 -0.663,0.64 -1.113,0.539 -0.451,-0.099 -0.775,-0.493 -0.786,-0.955 -0.193,-8.842 -7.542,-16.036 -16.379,-16.036 -8.557,0 -15.575,6.424 -16.325,14.944 -0.035,0.395 -0.299,0.732 -0.675,0.859 -0.376,0.128 -0.79,0.021 -1.059,-0.271 -1.989,-2.17 -4.806,-3.414 -7.729,-3.414 -5.712,0 -10.417,4.649 -10.488,10.363 -0.007,0.547 -0.453,0.987 -1,0.987 h -12.435 c -0.552,0 -1,-0.448 -1,-1 0,-0.552 0.448,-1 1,-1 h 11.487 c 0.584,-6.344 5.968,-11.35 12.437,-11.35 2.816,0 5.549,0.969 7.744,2.705 1.665,-8.575 9.106,-14.823 18.043,-14.823 8.889,0 16.435,6.485 18.06,14.975 3.002,-4.045 7.715,-6.46 12.883,-6.46 8.456,0 15.458,6.621 16.05,14.953 h 20.378 c 0.552,0 1,0.448 1,1 -0.001,0.552 -0.449,1 -1.001,1 z"
   id="path37" />
	</g>
	<g
   id="g40">
		<path
   style="fill:#f9ce6e"
   d="m 384.235,131.735 v 0 c -16.423,-7.946 -36.178,-1.074 -44.124,15.349 l -0.168,0.346 59.473,28.774 0.168,-0.346 c 7.946,-16.423 1.074,-36.178 -15.349,-44.123 z"
   id="path38" />
		<path
   style="fill:#eaac3d"
   d="m 391.085,129 -8.957,-4.334 c -3.846,-1.861 -8.458,0.006 -9.926,4.018 l -10.684,29.183 16.326,7.899 16.252,-26.49 c 2.233,-3.64 0.835,-8.415 -3.011,-10.276 z"
   id="path39" />
		<path
   style="fill:#eaac3d"
   d="m 402.737,175.292 -64.138,-31.031 c -1.771,-0.857 -3.901,-0.116 -4.758,1.655 -0.857,1.771 -0.116,3.902 1.655,4.758 l 64.138,31.031 c 1.771,0.857 3.901,0.116 4.758,-1.655 0.857,-1.77 0.116,-3.901 -1.655,-4.758 z"
   id="path40" />
	</g>
</g>
<g
   id="DESIGNED_BY_FREEPIK"
   style="display:none">
	<g
   id="g72">
		<g
   id="g50">
			<path
   id="path41"
   style="fill:#ce9c52"
   d="m 183.42578,475.85547 c -0.246,0 -0.43636,0.0839 -0.56836,0.25391 -0.133,0.17099 -0.19922,0.4209 -0.19922,0.7539 v 0.32031 c 0.51123,0.009 1.02212,0.0139 1.53321,0.0274 v -0.42969 c 0,-0.306 -0.0662,-0.53441 -0.19922,-0.69141 -0.133,-0.156 -0.32141,-0.23437 -0.56641,-0.23437 z m -4.93555,7.92969 c 0.0289,0.0405 0.059,0.0803 0.0899,0.11914 0.241,0.305 0.52742,0.53912 0.85742,0.70312 0.331,0.164 0.69012,0.2461 1.07812,0.2461 0.293,0 0.56355,-0.0391 0.81055,-0.1211 0.248,-0.08 0.47746,-0.19847 0.68945,-0.35547 0.18702,-0.13762 0.37491,-0.3153 0.56641,-0.52539 -1.36453,-0.009 -2.72651,-0.0419 -4.0918,-0.0664 z m 4.16797,0.0664 v 0.0762 c 0,0.297 0.0738,0.52455 0.21875,0.68555 0.144,0.16 0.32783,0.24024 0.54883,0.24024 0.226,0 0.40778,-0.0765 0.55078,-0.23047 0.143,-0.155 0.21485,-0.38632 0.21485,-0.69532 v -0.0625 c -0.51012,-0.007 -1.02209,-0.0102 -1.53321,-0.0137 z" />
			<path
   id="path42"
   style="fill:#ce9c52"
   d="m 185.77148,483.88281 c 0.0241,0.0267 0.049,0.0542 0.0742,0.0801 0.578,0.594 1.38774,0.89063 2.42774,0.89063 0.455,0 0.85703,-0.0587 1.20703,-0.17774 0.351,-0.119 0.64105,-0.26922 0.87305,-0.44922 0.12018,-0.0936 0.22357,-0.18913 0.3125,-0.28711 -1.63152,-0.019 -3.26308,-0.0328 -4.89454,-0.0566 z" />
			<path
   id="path43"
   style="fill:#ce9c52"
   d="m 191.98242,483.98438 c 0.19816,0.23755 0.4864,0.43823 0.86719,0.60156 0.416,0.178 0.91409,0.26758 1.49609,0.26758 0.609,0 1.12774,-0.0821 1.55274,-0.2461 0.20224,-0.0779 0.3799,-0.17431 0.53515,-0.28711 -0.25471,-0.0169 -0.5089,-0.0404 -0.76367,-0.0566 -1.23235,-0.0546 -2.45995,-0.16381 -3.6875,-0.27929 z" />
			<path
   id="path44"
   style="fill:#ce9c52"
   d="m 198.8457,475.92578 c -0.217,0 -0.41022,0.0737 -0.57422,0.22266 -0.164,0.149 -0.24609,0.33836 -0.24609,0.56836 0,0.254 0.0802,0.44989 0.24023,0.58789 0.16101,0.138 0.35508,0.20703 0.58008,0.20703 0.218,0 0.4045,-0.0709 0.5625,-0.21094 0.158,-0.141 0.23828,-0.33398 0.23828,-0.58398 0,-0.258 -0.0821,-0.45289 -0.24414,-0.58789 -0.162,-0.135 -0.34664,-0.20313 -0.55664,-0.20313 z m -0.69922,8.52344 c 0.0288,0.0547 0.0625,0.10581 0.10157,0.15039 0.148,0.17 0.34012,0.25391 0.57812,0.25391 0.238,0 0.43289,-0.082 0.58789,-0.24805 0.0166,-0.0177 0.0321,-0.0371 0.0469,-0.0566 -0.43812,-0.0337 -0.87618,-0.0678 -1.31446,-0.0996 z" />
			<path
   id="path45"
   style="fill:#ce9c52"
   d="m 201.31836,484.98438 c -0.189,0 -0.35233,0.0625 -0.48633,0.1875 -0.135,0.124 -0.20117,0.28442 -0.20117,0.48242 0,0.261 0.11847,0.51667 0.35547,0.76367 0.238,0.247 0.57662,0.44847 1.01562,0.60547 0.439,0.156 0.9381,0.23437 1.4961,0.23437 0.61,0 1.11929,-0.0625 1.52929,-0.18554 0.409,-0.122 0.74114,-0.3095 0.99414,-0.5625 0.254,-0.253 0.43679,-0.57394 0.55079,-0.96094 0.0339,-0.11429 0.062,-0.23586 0.0859,-0.36328 -0.52969,-0.0534 -1.05989,-0.1016 -1.58984,-0.15235 -0.0277,0.15041 -0.0698,0.29445 -0.13086,0.43164 -0.093,0.21 -0.25628,0.37324 -0.48828,0.49024 -0.232,0.117 -0.55656,0.17578 -0.97656,0.17578 -0.205,0 -0.38693,-0.0196 -0.54493,-0.0566 -0.158,-0.038 -0.29325,-0.0959 -0.40625,-0.17188 -0.112,-0.077 -0.21559,-0.17029 -0.30859,-0.27929 -0.093,-0.108 -0.18448,-0.21722 -0.27148,-0.32422 -0.178,-0.209 -0.38605,-0.31445 -0.62305,-0.31445 z" />
			
			
			<path
   id="path48"
   style="fill:#ce9c52"
   d="m 226.55273,475.85547 c -0.245,0 -0.43635,0.0839 -0.56835,0.25391 -0.13301,0.17099 -0.19922,0.4209 -0.19922,0.7539 v 1.23438 c 0.51107,0.005 1.02213,0.0107 1.5332,0.0156 v -1.33203 c 0,-0.306 -0.0662,-0.53441 -0.19922,-0.69141 -0.133,-0.156 -0.32141,-0.23437 -0.56641,-0.23437 z" />
			<path
   id="path49"
   style="fill:#ce9c52"
   d="m 231.63281,475.85547 c -0.238,0 -0.42364,0.0839 -0.55664,0.25195 -0.132,0.168 -0.19726,0.41614 -0.19726,0.74414 v 1.29883 c 0.51041,0.005 1.02084,0.0101 1.53125,0.0156 v -1.38477 c 0,-0.297 -0.0672,-0.52455 -0.20118,-0.68555 -0.135,-0.16 -0.32617,-0.24023 -0.57617,-0.24023 z" />
			<path
   id="path50"
   style="fill:#ce9c52"
   d="m 242.52539,478.26367 c -0.0559,0 -0.10665,0.005 -0.1543,0.0117 0.0944,10e-4 0.18881,8.9e-4 0.28321,0.002 -0.0426,-0.008 -0.0848,-0.0137 -0.12891,-0.0137 z m -2.16992,8.16406 c -1.08433,0.0592 -2.16889,0.10515 -3.25391,0.13086 0.006,0.26116 0.12195,0.44373 0.35352,0.54493 0.237,0.103 0.59336,0.15429 1.06836,0.15429 0.487,0 0.87511,-0.0756 1.16211,-0.22461 0.27574,-0.14123 0.49852,-0.34409 0.66992,-0.60547 z" />
		</g>
		<g
   id="g61">
			<path
   id="path51"
   style="fill:#ce9c52"
   d="m 265.2832,475.85156 c -0.533,0 -0.95376,0.0681 -1.25976,0.20313 -0.307,0.137 -0.5263,0.35334 -0.6543,0.65234 -0.10472,0.24166 -0.16399,0.55109 -0.18359,0.92774 0.56451,-0.0838 1.12936,-0.16505 1.69336,-0.25196 0.0121,-0.0368 0.0264,-0.0718 0.041,-0.10351 0.087,-0.171 0.27246,-0.25977 0.56446,-0.25977 0.106,0 0.24067,0.0142 0.38867,0.0352 0.156,0.025 0.26807,0.0371 0.33007,0.0371 0.135,0 0.25361,-0.0542 0.34961,-0.16016 0.101,-0.107 0.15039,-0.23576 0.15039,-0.38476 0,-0.46701 -0.46992,-0.69532 -1.41992,-0.69532 z m -1.7539,8.86133 c 0.12905,0.0943 0.27844,0.14063 0.44922,0.14063 0.17413,0 0.3229,-0.0439 0.44921,-0.13086 -0.29947,-0.004 -0.59896,-0.006 -0.89843,-0.01 z" />
			<path
   id="path52"
   style="fill:#ce9c52"
   d="m 266.875,484.75 c 0.1153,0.0684 0.24921,0.10352 0.40234,0.10352 0.14647,0 0.27601,-0.0309 0.39063,-0.0937 -0.26433,-0.003 -0.52864,-0.007 -0.79297,-0.01 z" />
			<path
   id="path53"
   style="fill:#ce9c52"
   d="m 273.50781,484.82617 c 0.16332,0.0169 0.33299,0.0254 0.50977,0.0254 0.13141,0 0.25782,-0.006 0.38086,-0.0156 -0.29688,-0.003 -0.59375,-0.006 -0.89063,-0.01 z" />
			
			<path
   id="path55"
   style="fill:#ce9c52"
   d="m 284.30859,484.94336 v 1.23242 c 0,0.355 0.0495,0.61964 0.14453,0.80664 0.10201,0.183 0.30143,0.27539 0.60743,0.27539 0.518,0 0.77929,-0.35836 0.77929,-1.06836 v -1.23437 c -0.51036,-0.006 -1.02092,-0.004 -1.53125,-0.0117 z" />
			
			
			
			<path
   id="path59"
   style="fill:#ce9c52"
   d="m 308.30859,478.48828 c -0.41688,0.0489 -0.83272,0.10659 -1.25,0.15234 -0.68875,0.0688 -1.37757,0.13482 -2.0664,0.20118 -0.054,0.0395 -0.10569,0.0821 -0.15625,0.125 1.52184,0.0605 3.04301,0.15914 4.5625,0.27148 -0.0985,-0.11329 -0.21341,-0.22433 -0.34571,-0.33203 -0.2108,-0.16453 -0.45759,-0.30421 -0.74414,-0.41797 z" />
			<path
   id="path60"
   style="fill:#ce9c52"
   d="m 313.64648,478.26172 c -0.482,0 -0.92417,0.0764 -1.32617,0.23242 -0.398,0.158 -0.73558,0.38092 -1.01758,0.66992 -0.0641,0.066 -0.12418,0.13683 -0.18164,0.20899 0.65827,0.0556 1.31506,0.12115 1.97266,0.18359 6.5e-4,6e-5 10e-4,-6e-5 0.002,0 0.16898,-0.0641 0.35266,-0.0957 0.55078,-0.0957 0.31153,0 0.58344,0.0751 0.81446,0.22461 0.43071,0.0436 0.8626,0.0753 1.29297,0.12109 0.2576,0.0159 0.51183,0.0604 0.76757,0.0918 -0.13439,-0.26881 -0.30285,-0.50974 -0.50976,-0.72461 -0.288,-0.29 -0.62934,-0.51683 -1.02734,-0.67383 -0.401,-0.161 -0.8479,-0.23828 -1.3379,-0.23828 z" />
			<path
   id="path61"
   style="fill:#ce9c52"
   d="m 318.3418,478.26172 c -0.227,0 -0.41364,0.0773 -0.55664,0.23828 -0.139,0.157 -0.20899,0.38931 -0.20899,0.69531 v 0.84375 c 0.6098,0.10321 1.21879,0.20189 1.82813,0.28906 0.0281,-0.0907 0.0584,-0.17583 0.0937,-0.25195 0.168,-0.37 0.51683,-0.55078 1.04883,-0.55078 0.264,0 0.45903,0.0718 0.58203,0.21875 0.121,0.143 0.19756,0.33173 0.22656,0.55274 0.005,0.0432 0.01,0.0928 0.0137,0.14257 0.19616,-0.007 0.39039,0.0146 0.58789,-0.008 0.44072,-0.0501 0.84434,-0.0527 1.22656,-0.0332 0.0176,-0.0648 0.0353,-0.12492 0.0566,-0.17578 0.108,-0.21 0.25918,-0.38382 0.45118,-0.50782 0.193,-0.125 0.39537,-0.1914 0.60937,-0.1914 0.265,0 0.4627,0.0728 0.5957,0.21484 0.129,0.141 0.20929,0.3183 0.23829,0.5293 0.0222,0.1658 0.0362,0.37721 0.041,0.63086 1.64038,0.84402 2.06356,2.56348 1.13867,3.90625 0.12053,-0.0417 0.22664,-0.11009 0.31446,-0.20703 0.153,-0.173 0.22851,-0.42558 0.22851,-0.76758 v -3.16406 c 0,-0.629 -0.069,-1.08977 -0.20703,-1.38477 -0.159,-0.322 -0.3978,-0.57405 -0.7168,-0.74805 -0.32,-0.173 -0.70548,-0.26172 -1.14648,-0.26172 -0.381,0 -0.72606,0.0812 -1.03906,0.24219 -0.313,0.161 -0.60586,0.40828 -0.88086,0.73828 -0.192,-0.326 -0.43161,-0.57332 -0.72461,-0.73633 -0.292,-0.161 -0.64183,-0.24414 -1.04883,-0.24414 -0.395,0 -0.74731,0.0802 -1.07031,0.24219 -0.319,0.156 -0.6213,0.40328 -0.9043,0.73828 v -0.15429 c 0,-0.261 -0.0727,-0.46624 -0.2207,-0.61524 -0.15,-0.145 -0.33364,-0.2207 -0.55664,-0.2207 z" />
		</g>
		<g
   id="g71">
			
			
			
			
			
			<path
   style="fill:#ce9c52"
   d="m 253.897,474.956 c 0.313,0 0.544,0.025 0.809,0.07 l 0.075,-0.477 c 0,0 -0.732,-0.225 -1.694,-0.146 l -0.076,-0.259 c 0.299,-0.063 0.524,-0.329 0.524,-0.646 0,-0.364 -0.296,-0.659 -0.661,-0.659 -0.364,0 -0.66,0.295 -0.66,0.659 0,0.317 0.224,0.583 0.522,0.646 l 0.084,0.289 c -1.021,0.14 -1.834,0.539 -1.834,0.539 l 0.144,0.441 c 0.618,-0.206 1.154,-0.331 1.64,-0.383 0.477,-0.052 0.835,-0.074 1.127,-0.074 z"
   id="path67" />
			
			<path
   id="path69"
   style="fill:#ce9c52"
   d="m 259.64648,475.50781 c -0.23,0 -0.41796,0.18697 -0.41796,0.41797 0,0.036 0.004,0.0705 0.0137,0.10352 -0.115,0.104 -0.21299,0.26586 -0.20899,0.50586 0.002,0.123 -0.0297,0.21243 -0.0957,0.27343 -0.053,0.047 -0.12055,0.0719 -0.18555,0.0879 -0.492,-0.689 -1.09765,-1.10937 -1.09765,-1.10937 l -0.47266,0.50781 c 0.358,0.326 0.72508,0.73414 1.08008,1.24414 0.15347,0.2196 0.31001,0.47797 0.45703,0.75196 0.25137,-0.0358 0.50271,-0.0722 0.75391,-0.10938 -0.12419,-0.27035 -0.32316,-0.676 -0.56641,-1.05859 0.071,-0.025 0.14303,-0.0631 0.20703,-0.11914 0.125,-0.113 0.1876,-0.27361 0.1836,-0.47461 -0.001,-0.13 0.0427,-0.21739 0.0937,-0.27539 0.071,0.054 0.15982,0.0898 0.25782,0.0898 0.232,0 0.41797,-0.18697 0.41797,-0.41797 -0.002,-0.23 -0.18793,-0.41797 -0.41993,-0.41797 z" />
			<path
   id="path70"
   style="fill:#ce9c52"
   d="m 256.31445,484.86523 c -1.60846,0.21388 -3.21757,0.41909 -4.83007,0.59766 0.34705,0.0568 0.80005,0.10742 1.34179,0.10742 1.19524,0 2.36882,-0.23736 3.48828,-0.70508 z" />
			<path
   id="path68"
   style="fill:#ce9c52"
   d="m 247.80273,476.9082 c -0.017,0.024 -0.496,0.46625 -0.875,1.28125 -0.016,-0.026 -0.0356,-0.0512 -0.0566,-0.0742 -0.113,-0.124 -0.27261,-0.18659 -0.47461,-0.18359 h -0.008 c -0.125,0 -0.21158,-0.0418 -0.26758,-0.0918 0.056,-0.071 0.0898,-0.16176 0.0898,-0.25976 0,-0.23 -0.18697,-0.41797 -0.41797,-0.41797 -0.23,0 -0.41992,0.18797 -0.41992,0.41797 0,0.231 0.18892,0.41797 0.41992,0.41797 0.036,0 0.0705,-0.005 0.10351,-0.0117 0.103,0.114 0.26491,0.21398 0.50391,0.20898 0.123,-0.001 0.21344,0.0307 0.27344,0.0977 0.009,0.01 0.0159,0.0203 0.0234,0.0312 0.33007,0.003 0.66016,0.006 0.99023,0.01 0.27029,-0.59216 0.52842,-0.94789 0.54102,-0.96679 l 0.004,-0.006 c 0.024,-0.031 0.0483,-0.0599 0.0723,-0.0879 l -0.19727,-0.14063 z" /><path
   id="path71"
   style="fill:#ce9c52"
   d="m 253.89648,475.30859 c -0.28,0 -0.62684,0.0243 -1.08984,0.0723 -0.465,0.048 -0.98103,0.16909 -1.58203,0.37109 -0.842,0.282 -1.60608,0.7233 -2.20508,1.2793 L 249,477.05078 c -0.089,0.081 -0.27428,0.25439 -0.48828,0.52539 -0.0184,0.0262 -0.21511,0.30892 -0.43555,0.76367 0.42448,0.004 0.84896,0.009 1.27344,0.0137 0.22284,-0.71669 0.88994,-1.23829 1.67969,-1.23829 0.80464,0 1.48082,0.54091 1.6914,1.27735 0.79493,0.008 1.58985,0.0168 2.38477,0.0254 -0.009,-0.0553 -0.0137,-0.11226 -0.0137,-0.16992 0,-0.601 0.48884,-1.08985 1.08984,-1.08985 0.601,0 1.08789,0.48785 1.08789,1.08985 0,0.0663 -0.006,0.13223 -0.0176,0.19531 0.13151,10e-4 0.26302,0.002 0.39453,0.004 0.23123,-0.0333 0.4621,-0.0688 0.69336,-0.10157 -0.12148,-0.21941 -0.24634,-0.42717 -0.36914,-0.60351 -1.253,-1.791 -2.60287,-2.25024 -3.29687,-2.36524 -0.265,-0.043 -0.47735,-0.0684 -0.77735,-0.0684 z" />
		</g>
	</g>
</g>
</svg>
